<?xml version="1.0" encoding="UTF-8" standalone="no"?>
<!-- Created with Inkscape (http://www.inkscape.org/) -->

<svg
   version="1.1"
   id="svg1"
   width="1600"
   height="1600"
   viewBox="0 0 1599.9999 1600"
   sodipodi:docname="full_logo_no_text.svg"
   inkscape:version="1.4.2 (f4327f4, 2025-05-13)"
   inkscape:export-filename="full_logo_no_text_16.png"
   inkscape:export-xdpi="1"
   inkscape:export-ydpi="1"
   xmlns:inkscape="http://www.inkscape.org/namespaces/inkscape"
   xmlns:sodipodi="http://sodipodi.sourceforge.net/DTD/sodipodi-0.dtd"
   xmlns:xlink="http://www.w3.org/1999/xlink"
   xmlns="http://www.w3.org/2000/svg"
   xmlns:svg="http://www.w3.org/2000/svg">
  <defs
     id="defs1">
    <linearGradient
       id="linearGradient2"
       inkscape:collect="always">
      <stop
         style="stop-color:#000a2b;stop-opacity:1;"
         offset="0"
         id="stop2" />
      <stop
         style="stop-color:#00050f;stop-opacity:1;"
         offset="1"
         id="stop3" />
    </linearGradient>
    <linearGradient
       id="linearGradient21"
       inkscape:collect="always">
      <stop
         style="stop-color:#57c7ff;stop-opacity:1;"
         offset="0"
         id="stop21" />
      <stop
         style="stop-color:#306b8d;stop-opacity:1;"
         offset="1"
         id="stop22" />
    </linearGradient>
    <linearGradient
       id="linearGradient19"
       inkscape:collect="always">
      <stop
         style="stop-color:#352c1a;stop-opacity:1;"
         offset="0"
         id="stop19" />
      <stop
         style="stop-color:#d8b878;stop-opacity:1;"
         offset="1"
         id="stop20" />
    </linearGradient>
    <rect
       x="601.09937"
       y="1358.1154"
       width="488.26505"
       height="155.91656"
       id="rect5" />
    <linearGradient
       inkscape:collect="always"
       xlink:href="#linearGradient19"
       id="linearGradient20"
       x1="1408.9023"
       y1="1298.3579"
       x2="885.61041"
       y2="816.74097"
       gradientUnits="userSpaceOnUse"
       gradientTransform="matrix(1.1571061,0,0,1.1571061,-147.36488,-78.247024)" />
    <linearGradient
       inkscape:collect="always"
       xlink:href="#linearGradient21"
       id="linearGradient22"
       x1="875.51318"
       y1="977.74988"
       x2="1479.1216"
       y2="1198.2491"
       gradientUnits="userSpaceOnUse"
       gradientTransform="matrix(1.1571061,0,0,1.1571061,-150.2558,-78.247024)" />
    <linearGradient
       inkscape:collect="always"
       xlink:href="#linearGradient2"
       id="linearGradient3"
       x1="184.45029"
       y1="137.70551"
       x2="1002.5832"
       y2="1147.3604"
       gradientUnits="userSpaceOnUse"
       spreadMethod="pad" />
  </defs>
  <sodipodi:namedview
     id="namedview1"
     pagecolor="#ffffff"
     bordercolor="#000000"
     borderopacity="0.25"
     inkscape:showpageshadow="2"
     inkscape:pageopacity="0.0"
     inkscape:pagecheckerboard="0"
     inkscape:deskcolor="#d1d1d1"
     showgrid="false"
     inkscape:zoom="0.34467226"
     inkscape:cx="1270.7724"
     inkscape:cy="903.75709"
     inkscape:window-width="1920"
     inkscape:window-height="1017"
     inkscape:window-x="1912"
     inkscape:window-y="-8"
     inkscape:window-maximized="1"
     inkscape:current-layer="g1"
     showguides="false" />
  <g
     inkscape:groupmode="layer"
     inkscape:label="Image"
     id="g1"
     transform="translate(-39.384936,-37.166663)">
    <g
       id="g2">
      <path
         style="display:inline;fill:url(#linearGradient3);stroke:#3e4d4b;stroke-width:15;stroke-dasharray:none;stroke-opacity:1"
         d="m 364,1628.4887 c -1.83333,-0.2648 -8.73333,-1.1368 -15.33333,-1.9378 C 241.26628,1613.5172 142.78123,1546.5901 88.867315,1450 65.299143,1407.7762 51.483856,1360.0785 47.931153,1308.6667 47.004581,1295.2581 46.696122,1135.3065 46.995209,823.33333 47.411975,388.61045 47.594495,356.99135 49.769837,342.66667 59.382995,279.3638 79.230464,231.24674 116.15623,181.72332 128.83189,164.72321 164.97328,128.55591 182.29568,115.53645 231.2223,78.763346 283.32173,57.066233 346.66667,47.083175 361.25969,44.783339 384.88538,44.666667 836,44.666667 c 441.6488,0 475.0237,0.156582 488.9983,2.294204 39.6194,6.060331 71.3437,15.828172 105.0017,32.329728 34.3949,16.862821 57.9717,32.740621 83.3612,56.139551 59.7026,55.0219 95.4497,121.75647 108.2547,202.09575 l 3.0508,19.14077 v 480 480.00003 l -2.9866,18.6666 c -12.123,75.7712 -41.0612,134.5309 -92.653,188.1342 -56.4436,58.6442 -132.0128,95.6526 -213.3079,104.4627 -8.8428,0.9583 -161.2263,1.3456 -480.66665,1.2216 -257.24557,-0.1 -469.21922,-0.3983 -471.05255,-0.6631 z"
         id="path2"
         sodipodi:nodetypes="scsssssssssssscccsssss"
         inkscape:label="Background" />
      <path
         style="display:inline;fill:#ffffff;stroke:none;stroke-width:8;stroke-dasharray:none;stroke-opacity:1"
         d="m 370.95987,1414.2286 c 2.48257,-9.5567 4.82319,-15.6685 6.73129,-17.5766 1.62542,-1.6254 8.1764,-4.4954 14.74261,-6.4587 18.38882,-5.4983 18.08809,-5.1029 6.45192,-8.4839 -18.23197,-5.2975 -21.47757,-7.3643 -24.57791,-15.6507 -1.49003,-3.9824 -3.66657,-11.2768 -4.83675,-16.2098 -1.17019,-4.9329 -2.42124,-9.8689 -2.78012,-10.9689 -0.35888,-1.1 -2.33607,4.6 -4.39375,12.6666 -2.05769,8.0667 -4.49408,16.2902 -5.4142,18.2745 -1.95229,4.2103 -8.63787,7.6378 -23.08712,11.8362 -5.63052,1.636 -10.00647,3.2054 -9.72433,3.4875 0.28213,0.2822 4.93795,1.7606 10.34627,3.2855 17.19616,4.8485 20.70582,7.0619 23.63627,14.9065 1.41283,3.7821 3.67441,11.803 5.02574,17.8244 1.35134,6.0213 2.82082,10.2213 3.26553,9.3333 0.4447,-0.888 2.52125,-8.2076 4.61455,-16.2659 z"
         id="path4"
         sodipodi:nodetypes="ssssssssssssssss"
         inkscape:label="Star Bottom Left" />
      <path
         style="display:inline;fill:#ffffff;stroke:none;stroke-width:8;stroke-dasharray:none;stroke-opacity:1"
         d="m 322.04211,352.0153 c 2.48257,-9.5567 4.82319,-15.6685 6.73129,-17.5766 1.62542,-1.6254 8.1764,-4.4954 14.74261,-6.4587 18.38882,-5.4983 18.08809,-5.1029 6.45192,-8.4839 -18.23197,-5.2975 -21.47757,-7.3643 -24.57791,-15.6507 -1.49003,-3.9824 -3.66657,-11.2768 -4.83675,-16.2098 -1.17019,-4.9329 -2.42124,-9.8689 -2.78012,-10.9689 -0.35888,-1.1 -2.33607,4.6 -4.39375,12.6666 -2.05769,8.0667 -4.49408,16.2902 -5.4142,18.2745 -1.95229,4.2103 -8.63787,7.6378 -23.08712,11.8362 -5.63052,1.636 -10.00647,3.2054 -9.72433,3.4875 0.28213,0.2822 4.93795,1.7606 10.34627,3.2855 17.19616,4.8485 20.70582,7.0619 23.63627,14.9065 1.41283,3.7821 3.67441,11.803 5.02574,17.8244 1.35134,6.0213 2.82082,10.2213 3.26553,9.3333 0.4447,-0.888 2.52125,-8.2076 4.61455,-16.2659 z"
         id="path3"
         sodipodi:nodetypes="ssssssssssssssss"
         inkscape:label="Star Upper Left" />
      <path
         style="display:inline;fill:#ffffff;stroke:none;stroke-width:8;stroke-dasharray:none;stroke-opacity:1"
         d="m 1217.7383,1390.6691 c 8.1088,-8.8998 1.7169,-22.6489 -10.5294,-22.6489 -2.1176,0 -5.1816,1.7776 -8.1079,4.7039 -4.2276,4.2276 -4.6305,5.2505 -3.9796,10.1035 1.6942,12.6312 14.2777,16.9941 22.6169,7.8415 z"
         id="path7"
         sodipodi:nodetypes="sssss"
         inkscape:label="Star Dot Bottom Right" />
      <path
         style="display:inline;fill:#ffffff;stroke:none;stroke-width:8;stroke-dasharray:none;stroke-opacity:1"
         d="m 246.66667,708.19305 c 7.41618,-5.43492 7.41813,-16.47438 0.004,-23.19305 -8.62015,-7.81165 -21.98972,-2.63977 -23.56621,9.11634 -1.84635,13.76856 12.38277,22.26946 23.56212,14.07671 z"
         id="path6"
         sodipodi:nodetypes="sssss"
         inkscape:label="Star Dot Left" />
      <path
         style="display:inline;fill:#ffffff;stroke:none;stroke-width:8;stroke-dasharray:none;stroke-opacity:1"
         d="m 822.28392,230.6003 c 7.18398,-2.50435 9.17035,-11.26724 3.77669,-16.66091 -3.99959,-3.99958 -8.55379,-4.17511 -13.21413,-0.50928 -5.63434,4.43197 -4.31358,14.58648 2.24068,17.22725 1.60206,0.64549 2.97331,1.21164 3.04721,1.25812 0.0739,0.0465 1.9412,-0.54535 4.14955,-1.31518 z"
         id="path5"
         sodipodi:nodetypes="ssssss"
         inkscape:label="Star Dot Top" />
      <path
         style="display:inline;fill:#ffffff;stroke:none;stroke-width:8;stroke-dasharray:none;stroke-opacity:1"
         d="m 1315.7736,329.16735 c 3.7998,-12.86352 6.8196,-18.49125 11.453,-21.34397 4.4433,-2.73565 22.3211,-8.71605 37.7153,-12.61632 5.2847,-1.33893 9.4386,-2.60436 9.2309,-2.81207 -0.2077,-0.20771 -8.6432,-2.79464 -18.7455,-5.74872 -23.2812,-6.80782 -29.5273,-9.66753 -32.8455,-15.03805 -3.2491,-5.25866 -7.2775,-18.10963 -11.9981,-38.27489 -2.6522,-11.32994 -3.8035,-14.46303 -4.4094,-12 -0.451,1.83334 -2.2976,9.72176 -4.1036,17.52984 -4.4119,19.07513 -8.358,30.48898 -11.8468,34.26659 -4.4235,4.78951 -10.8416,7.57425 -30.8242,13.37428 -10.0855,2.92736 -18.5653,5.5505 -18.844,5.8292 -0.2787,0.2787 7.6935,2.76404 17.7162,5.52298 18.7697,5.16676 28.745,9.3468 32.6136,13.66633 2.8737,3.20871 7.0682,15.81406 11.1852,33.61428 1.806,7.80808 3.6563,15.6965 4.1119,17.52984 0.6135,2.46868 1.6265,-0.29821 3.9051,-10.66667 1.6922,-7.7 4.2508,-17.97469 5.6859,-22.83265 z"
         id="path1"
         sodipodi:nodetypes="ssssssssssssssssss"
         inkscape:label="Star_Upper_Right" />
      <path
         style="display:inline;fill:url(#linearGradient20);fill-opacity:1;stroke:#55462a;stroke-width:9.25685;stroke-dasharray:none;stroke-dashoffset:0;stroke-opacity:1"
         d="m 958.59598,1280.7097 c 84.02952,-9.326 162.16802,-35.3664 232.08742,-77.3454 32.7587,-19.6682 60.7158,-40.8464 90.5929,-68.6265 l 16.5852,-15.4211 0.043,-68.9189 0.3395,-68.62227 c 0,0 -0.4852,-21.60861 0.8543,-64.32317 0.021,-0.67981 -1.2366,-45.47427 -1.2366,-101.05392 V 765.87147 715.3445 H 1075.6971 706.46237 c 0,0 102.0149,114.78849 149.44422,167.33506 l 116.42236,2.37383 h 118.79625 v 64.44013 64.44008 l -14.2709,5.1824 c -26.4595,9.6084 -71.1989,25.0127 -94.88049,32.6688 -48.68645,15.7401 -120.94846,35.3563 -130.29125,35.3687 -9.2058,0.013 -37.62942,-5.8975 -56.77652,-11.8052 -108.74442,-33.552 -184.20759,-120.99387 -205.50147,-238.12195 -4.36409,-24.0049 -4.77415,-78.83933 -0.77731,-103.94408 5.80195,-36.44289 15.10274,-65.04896 31.42585,-96.6554 31.22122,-60.45359 80.62094,-111.12105 141.68256,-131.16219 170.01556,-55.80112 301.23663,46.46574 301.23663,46.46574 0,0 28.043,-16.76101 175.9171,-102.11361 -36.4109,-54.13817 -108.6177,-98.32989 -167.1756,-123.35839 -94.54306,-37.9302 -203.76281,-47.40298 -309.29594,-26.82568 -58.67314,11.44033 -116.65267,35.29434 -168.84827,69.46775 -111.15248,72.77357 -184.15722,187.10705 -207.29363,324.64471 -4.87858,29.0014 -6.63716,51.56897 -6.61229,84.85444 0.0618,82.60463 16.58025,154.58519 51.86871,226.02136 23.91035,48.403 45.19531,84.8961 86.95721,122.9374 71.26634,64.9171 86.59362,84.7923 194.64763,125.1457 50.34204,17.7256 97.87759,27.0982 157.36642,31.0284 15.76058,1.0411 67.45833,-0.7328 88.09234,-3.0228 z"
         id="path2-5"
         sodipodi:nodetypes="ssscccsscccccccccssccssssccssssssssss"
         inkscape:label="G" />
      <path
         style="display:inline;fill:url(#linearGradient22);fill-opacity:1;stroke:#26546c;stroke-width:9.25685;stroke-dasharray:none;stroke-opacity:1"
         d="m 378.54256,1196.5606 c -83.69814,-4.9439 -160.33987,-21.57 -212.20256,-46.0336 -44.52787,-21.0038 -72.406852,-48.6424 -81.774393,-81.0694 -3.400413,-11.771 -3.444761,-33.8404 -0.09357,-46.591 7.065792,-26.88442 24.144433,-53.24855 53.298053,-82.27605 38.72066,-38.55314 87.06352,-71.82769 157.46087,-108.38081 21.44621,-11.13574 33.94178,-16.99685 33.94178,-15.92057 0,0.27759 -6.76907,5.57324 -15.04238,11.76815 -92.61131,69.3456 -139.91405,119.1263 -155.12228,163.24836 -10.78637,31.29332 -5.72322,56.31252 16.12186,79.66492 33.90584,36.2456 104.2334,59.536 208.04108,68.8975 35.563,3.2072 122.37899,2.3747 167.39469,-1.605 83.87331,-7.415 145.38406,-16.6031 224.11637,-33.4775 98.04664,-21.0137 155.12606,-36.3369 234.09772,-62.8442 36.701,-12.3191 78.2122,-27.3317 79.4545,-28.7349 0.4243,-0.4793 1.8128,-1.0984 3.0856,-1.3756 3.5059,-0.7639 57.862,-23.22879 84.8814,-35.0808 32.8301,-14.40087 123.8078,-60.51285 151.9397,-77.01051 137.265,-80.4977 214.6381,-161.7302 205.9354,-216.20739 -5.857,-36.66254 -44.1077,-63.64936 -115.5291,-81.50851 -31.2692,-7.81901 -105.247,-19.00401 -129.4087,-19.5659 -8.6586,-0.20135 -8.5924,-0.2318 3.5177,-1.61805 18.6382,-2.13348 98.1025,-0.48879 122.6534,2.53861 58.18,7.17425 110.4814,23.91059 139.4283,44.61672 78.6064,56.22841 46.1993,147.983 -87.7442,248.43131 -60.0137,45.00599 -154.8206,99.57762 -246.6651,141.98242 -254.30955,117.4154 -526.66813,180.6825 -773.13115,179.5934 -26.30487,-0.1161 -57.19961,-0.7649 -68.65495,-1.4416 z"
         id="path3-2"
         sodipodi:nodetypes="ssssssssssssssssssssssssssss"
         inkscape:label="Orbit" />
    </g>
  </g>
</svg>
